<?xml version="1.0" standalone="no"?><!DOCTYPE svg PUBLIC "-//W3C//DTD SVG 1.1//EN" "http://www.w3.org/Graphics/SVG/1.1/DTD/svg11.dtd"><svg class="icon" height="512" viewBox="0 0 1024 1024" version="1.1" xmlns="http://www.w3.org/2000/svg"><path d="M634.496 812.288 389.12 812.288l0 89.024L155.52 901.312l0 66.752 712.256 0 0-66.752L634.496 901.312 634.496 812.288zM956.544 55.936 66.752 55.936C29.952 55.936 0 85.76 0 122.688l0 622.784c0 55.296 53.696 66.816 96.704 66.816l824.448 0c72.32 0 102.144-30.016 102.144-66.816L1023.296 122.688C1023.296 85.76 993.408 55.936 956.544 55.936M976.32 736c0 12.8-10.368 23.296-23.232 23.296L70.208 759.296c-12.8 0-23.232-10.496-23.232-23.296L46.976 132.032c0-12.864 10.432-23.232 23.232-23.232l882.816 0c12.864 0 23.232 10.368 23.232 23.232L976.256 736zM753.088 680.32l83.776 0L836.864 329.856l-83.776 0L753.088 680.32zM559.808 683.008l84.288 0L644.096 224.704 559.808 224.704 559.808 683.008zM227.2 680.704l76.032 0L303.232 545.92 227.2 545.92 227.2 680.704zM377.728 678.592l80.96 0 0-242.56L377.728 436.032 377.728 678.592z" /></svg>